<?xml version="1.0" ?>
<!-- Uploaded to: SVG Repo, www.svgrepo.com, Generator: SVG Repo Mixer Tools -->
<svg width="800px" height="800px" viewBox="0 0 64 64" xmlns="http://www.w3.org/2000/svg">
<defs>
<style>.cls-1{fill:none;stroke:#000000;stroke-linejoin:round;stroke-width:2px;}</style>
</defs>
<title/>
<g data-name="Layer 24" id="Layer_24">
<rect class="cls-1" height="4" width="60" x="2" y="58"/>
<path class="cls-1" d="M4,58V4A2,2,0,0,1,6,2H6A2,2,0,0,1,8,4V58"/>
<path class="cls-1" d="M56,58V4a2,2,0,0,1,2-2h0a2,2,0,0,1,2,2V58"/>
<rect class="cls-1" height="4" width="48" x="8" y="10"/>
<rect class="cls-1" height="4" width="16" x="12" y="38"/>
<line class="cls-1" x1="14" x2="14" y1="38" y2="18"/>
<line class="cls-1" x1="26" x2="26" y1="38" y2="18"/>
<path class="cls-1" d="M12,14v2a2,2,0,0,0,2,2h0a2,2,0,0,0,2-2V14"/>
<path class="cls-1" d="M24,14v2a2,2,0,0,0,2,2h0a2,2,0,0,0,2-2V14"/>
<rect class="cls-1" height="4" width="16" x="36" y="38"/>
<line class="cls-1" x1="38" x2="38" y1="38" y2="18"/>
<line class="cls-1" x1="50" x2="50" y1="38" y2="18"/>
<path class="cls-1" d="M36,14v2a2,2,0,0,0,2,2h0a2,2,0,0,0,2-2V14"/>
<path class="cls-1" d="M48,14v2a2,2,0,0,0,2,2h0a2,2,0,0,0,2-2V14"/>
<line class="cls-1" x1="56" x2="60" y1="52" y2="52"/>
<line class="cls-1" x1="56" x2="60" y1="46" y2="46"/>
<line class="cls-1" x1="4" x2="8" y1="52" y2="52"/>
<line class="cls-1" x1="4" x2="8" y1="46" y2="46"/>
</g>
</svg>